<?xml version="1.0"?>
<!DOCTYPE svg PUBLIC "-//W3C//DTD SVG 1.1//EN" "http://www.w3.org/Graphics/SVG/1.1/DTD/svg11.dtd">
<svg xmlns="http://www.w3.org/2000/svg" xmlns:xl="http://www.w3.org/1999/xlink" version="1.1" viewBox="0 0 512 512" width="512pt" height="512pt"><metadata xmlns:dc="http://purl.org/dc/elements/1.1/"><dc:date>2013-04-16 23:44Z</dc:date><!-- Produced by OmniGraffle Professional 5.4.2 --></metadata><defs><filter id="Shadow" filterUnits="userSpaceOnUse"><feGaussianBlur in="SourceAlpha" result="blur" stdDeviation="6.80136"/><feFlood flood-color="#6f6" result="flood"/><feComposite in="flood" in2="blur" operator="in" result="color"/><feMerge><feMergeNode in="color"/><feMergeNode in="SourceGraphic"/></feMerge></filter></defs><g stroke="none" stroke-opacity="1" stroke-dasharray="none" fill="none" fill-opacity="1"><title>Canvas 1</title><rect fill="white" width="756" height="553"/><g><title>Layer 1</title><rect x="16" y="64" width="108" height="48" fill="#7c858f" fill-opacity=".8"/><rect x="16" y="64" width="108" height="48" stroke="#666" stroke-linecap="square" stroke-linejoin="miter" stroke-width="2"/><rect x="140" y="64" width="108" height="48" fill="#7c858f" fill-opacity=".8"/><rect x="140" y="64" width="108" height="48" stroke="#666" stroke-linecap="square" stroke-linejoin="miter" stroke-width="2"/><rect x="388" y="64" width="108" height="48" fill="#7c858f" fill-opacity=".8"/><rect x="388" y="64" width="108" height="48" stroke="#666" stroke-linecap="square" stroke-linejoin="miter" stroke-width="2"/><rect x="16" y="128" width="108" height="48" fill="#666" fill-opacity=".5"/><rect x="16" y="128" width="108" height="48" stroke="#666" stroke-opacity=".8" stroke-linecap="square" stroke-linejoin="miter" stroke-width="2"/><rect x="140" y="128" width="108" height="48" fill="#666" fill-opacity=".5"/><rect x="140" y="128" width="108" height="48" stroke="#666" stroke-opacity=".8" stroke-linecap="square" stroke-linejoin="miter" stroke-width="2"/><rect x="388" y="128" width="108" height="48" fill="#666" fill-opacity=".5"/><rect x="388" y="128" width="108" height="48" stroke="#666" stroke-opacity=".8" stroke-linecap="square" stroke-linejoin="miter" stroke-width="2"/><rect x="16" y="192" width="108" height="48" fill="#666" fill-opacity=".5"/><rect x="16" y="192" width="108" height="48" stroke="#666" stroke-opacity=".8" stroke-linecap="square" stroke-linejoin="miter" stroke-width="2"/><rect x="140" y="192" width="108" height="48" fill="#666" fill-opacity=".5"/><rect x="140" y="192" width="108" height="48" stroke="#666" stroke-opacity=".8" stroke-linecap="square" stroke-linejoin="miter" stroke-width="2"/><rect x="388" y="192" width="108" height="48" fill="#666" fill-opacity=".5"/><rect x="388" y="192" width="108" height="48" stroke="#666" stroke-opacity=".8" stroke-linecap="square" stroke-linejoin="miter" stroke-width="2"/><rect x="16" y="256" width="108" height="48" fill="#666" fill-opacity=".5"/><rect x="16" y="256" width="108" height="48" stroke="#666" stroke-opacity=".8" stroke-linecap="square" stroke-linejoin="miter" stroke-width="2"/><rect x="140" y="256" width="108" height="48" fill="#666" fill-opacity=".5"/><rect x="140" y="256" width="108" height="48" stroke="#666" stroke-opacity=".8" stroke-linecap="square" stroke-linejoin="miter" stroke-width="2"/><rect x="388" y="256" width="108" height="48" fill="#666" fill-opacity=".5"/><rect x="388" y="256" width="108" height="48" stroke="#666" stroke-opacity=".8" stroke-linecap="square" stroke-linejoin="miter" stroke-width="2"/><rect x="16" y="320" width="108" height="48" fill="#666" fill-opacity=".5"/><rect x="16" y="320" width="108" height="48" stroke="#666" stroke-opacity=".8" stroke-linecap="square" stroke-linejoin="miter" stroke-width="2"/><rect x="140" y="320" width="108" height="48" fill="#666" fill-opacity=".5"/><rect x="140" y="320" width="108" height="48" stroke="#666" stroke-opacity=".8" stroke-linecap="square" stroke-linejoin="miter" stroke-width="2"/><rect x="388" y="320" width="108" height="48" fill="#666" fill-opacity=".5"/><rect x="388" y="320" width="108" height="48" stroke="#666" stroke-opacity=".8" stroke-linecap="square" stroke-linejoin="miter" stroke-width="2"/><rect x="16" y="384" width="108" height="48" fill="#666" fill-opacity=".5"/><rect x="16" y="384" width="108" height="48" stroke="#666" stroke-opacity=".8" stroke-linecap="square" stroke-linejoin="miter" stroke-width="2"/><rect x="140" y="384" width="108" height="48" fill="#666" fill-opacity=".5"/><rect x="140" y="384" width="108" height="48" stroke="#666" stroke-opacity=".8" stroke-linecap="square" stroke-linejoin="miter" stroke-width="2"/><rect x="388" y="384" width="108" height="48" fill="#666" fill-opacity=".5"/><rect x="388" y="384" width="108" height="48" stroke="#666" stroke-opacity=".8" stroke-linecap="square" stroke-linejoin="miter" stroke-width="2"/><g filter="url(#Shadow)"><rect x="222" y="24.5" width="192" height="60" fill="#61ee5b"/><rect x="222" y="24.5" width="192" height="60" stroke="#42bb3d" stroke-linecap="square" stroke-linejoin="miter" stroke-width="8"/></g><g filter="url(#Shadow)"><rect x="222" y="105.02174" width="192" height="60" fill="#6f6"/><rect x="222" y="105.02174" width="192" height="60" stroke="#42bb3d" stroke-linecap="square" stroke-linejoin="miter" stroke-width="8"/></g><g filter="url(#Shadow)"><rect x="222" y="185.54348" width="192" height="60" fill="#6f6"/><rect x="222" y="185.54348" width="192" height="60" stroke="#42bb3d" stroke-linecap="square" stroke-linejoin="miter" stroke-width="8"/></g><g filter="url(#Shadow)"><rect x="222" y="266.06522" width="192" height="60" fill="#6f6"/><rect x="222" y="266.06522" width="192" height="60" stroke="#42bb3d" stroke-linecap="square" stroke-linejoin="miter" stroke-width="8"/></g><g filter="url(#Shadow)"><rect x="222" y="346.58696" width="192" height="60" fill="#6f6"/><rect x="222" y="346.58696" width="192" height="60" stroke="#42bb3d" stroke-linecap="square" stroke-linejoin="miter" stroke-width="8"/></g><g filter="url(#Shadow)"><rect x="222" y="427.1087" width="192" height="60" fill="#6f6"/><rect x="222" y="427.1087" width="192" height="60" stroke="#42bb3d" stroke-linecap="square" stroke-linejoin="miter" stroke-width="8"/></g></g></g></svg>
