<?xml version="1.0"?>
<!DOCTYPE svg PUBLIC "-//W3C//DTD SVG 1.1//EN" "http://www.w3.org/Graphics/SVG/1.1/DTD/svg11.dtd">
<svg xmlns="http://www.w3.org/2000/svg" xmlns:xl="http://www.w3.org/1999/xlink" version="1.1" viewBox="8 11 512 512" width="512pt" height="512pt"><metadata xmlns:dc="http://purl.org/dc/elements/1.1/"><dc:date>2013-04-15 01:42Z</dc:date><!-- Produced by OmniGraffle Professional 5.4.2 --></metadata><defs></defs><g stroke="none" stroke-opacity="1" stroke-dasharray="none" fill="none" fill-opacity="1"><title>Canvas 1</title><rect fill="white" width="756" height="553"/><g><title>Layer 1</title><rect x="8" y="11" width="512" height="512" fill="#191919"/><rect x="18" y="132.746414" width="221" height="45.690667" fill="#e6e6e6"/><rect x="18" y="132.746414" width="221" height="45.690667" stroke="#666" stroke-linecap="square" stroke-linejoin="miter" stroke-width="4"/><rect x="425" y="132.74642" width="87" height="45.690667" fill="#e6e6e6"/><rect x="425" y="132.74642" width="87" height="45.690667" stroke="#666" stroke-linecap="square" stroke-linejoin="miter" stroke-width="4"/><rect x="18" y="178.43708" width="221" height="45.690667" fill="#b3b3b3"/><rect x="18" y="178.43708" width="221" height="45.690667" stroke="#666" stroke-linecap="square" stroke-linejoin="miter" stroke-width="4"/><rect x="425" y="178.43709" width="87" height="45.690667" fill="#b3b3b3"/><rect x="425" y="178.43709" width="87" height="45.690667" stroke="#666" stroke-linecap="square" stroke-linejoin="miter" stroke-width="4"/><rect x="18" y="224.12776" width="221" height="45.690667" fill="#e6e6e6"/><rect x="18" y="224.12776" width="221" height="45.690667" stroke="#666" stroke-linecap="square" stroke-linejoin="miter" stroke-width="4"/><rect x="425" y="224.12776" width="87" height="45.690667" fill="#e6e6e6"/><rect x="425" y="224.12776" width="87" height="45.690667" stroke="#666" stroke-linecap="square" stroke-linejoin="miter" stroke-width="4"/><rect x="18" y="269.81843" width="221" height="45.690667" fill="#b3b3b3"/><rect x="18" y="269.81843" width="221" height="45.690667" stroke="#666" stroke-linecap="square" stroke-linejoin="miter" stroke-width="4"/><rect x="425" y="269.81843" width="87" height="45.690667" fill="#b3b3b3"/><rect x="425" y="269.81843" width="87" height="45.690667" stroke="#666" stroke-linecap="square" stroke-linejoin="miter" stroke-width="4"/><rect x="18" y="315.5091" width="221" height="45.690667" fill="#e6e6e6"/><rect x="18" y="315.5091" width="221" height="45.690667" stroke="#666" stroke-linecap="square" stroke-linejoin="miter" stroke-width="4"/><rect x="425" y="315.5091" width="87" height="45.690667" fill="#e6e6e6"/><rect x="425" y="315.5091" width="87" height="45.690667" stroke="#666" stroke-linecap="square" stroke-linejoin="miter" stroke-width="4"/><rect x="18" y="361.19977" width="221" height="45.690667" fill="#b3b3b3"/><rect x="18" y="361.19977" width="221" height="45.690667" stroke="#666" stroke-linecap="square" stroke-linejoin="miter" stroke-width="4"/><rect x="425" y="361.19978" width="87" height="45.690667" fill="#b3b3b3"/><rect x="425" y="361.19978" width="87" height="45.690667" stroke="#666" stroke-linecap="square" stroke-linejoin="miter" stroke-width="4"/><rect x="18" y="407.30934" width="221" height="45.690667" fill="#e6e6e6"/><rect x="18" y="407.30934" width="221" height="45.690667" stroke="#666" stroke-linecap="square" stroke-linejoin="miter" stroke-width="4"/><rect x="425" y="407.30935" width="87" height="45.690667" fill="#e6e6e6"/><rect x="425" y="407.30935" width="87" height="45.690667" stroke="#666" stroke-linecap="square" stroke-linejoin="miter" stroke-width="4"/><rect x="18" y="87.218553" width="221" height="43.56923" fill="#ff8000"/><rect x="18" y="87.218553" width="221" height="43.56923" stroke="#b24c05" stroke-linecap="square" stroke-linejoin="miter" stroke-width="4"/><rect x="425" y="87.218553" width="87" height="43.56923" fill="#ff8000"/><rect x="425" y="87.218553" width="87" height="43.56923" stroke="#b24c05" stroke-linecap="square" stroke-linejoin="miter" stroke-width="4"/><rect x="215" y="35" width="234" height="65.762802" fill="#0080ff"/><rect x="215" y="35" width="234" height="65.762802" stroke="#0a5de6" stroke-linecap="square" stroke-linejoin="miter" stroke-width="10"/><rect x="215" y="100.762806" width="234" height="56.82079" fill="#a6d0ff"/><rect x="215" y="100.762806" width="234" height="56.82079" stroke="#0a5de6" stroke-linecap="square" stroke-linejoin="miter" stroke-width="10"/><rect x="215" y="157.583595" width="234" height="56.82079" fill="#76b5ff"/><rect x="215" y="157.583595" width="234" height="56.82079" stroke="#0a5de6" stroke-linecap="square" stroke-linejoin="miter" stroke-width="10"/><rect x="215" y="214.84073" width="234" height="56.82079" fill="#a6d0ff"/><rect x="215" y="214.84073" width="234" height="56.82079" stroke="#0a5de6" stroke-linecap="square" stroke-linejoin="miter" stroke-width="10"/><rect x="215" y="272.09786" width="234" height="56.82079" fill="#76b5ff"/><rect x="215" y="272.09786" width="234" height="56.82079" stroke="#0a5de6" stroke-linecap="square" stroke-linejoin="miter" stroke-width="10"/><rect x="215" y="329.355" width="234" height="56.82079" fill="#a6d0ff"/><rect x="215" y="329.355" width="234" height="56.82079" stroke="#0a5de6" stroke-linecap="square" stroke-linejoin="miter" stroke-width="10"/><rect x="215" y="386.61213" width="234" height="56.82079" fill="#76b5ff"/><rect x="215" y="386.61213" width="234" height="56.82079" stroke="#0a5de6" stroke-linecap="square" stroke-linejoin="miter" stroke-width="10"/><rect x="215" y="443.86926" width="234" height="56.82079" fill="#a6d0ff"/><rect x="215" y="443.86926" width="234" height="56.82079" stroke="#0a5de6" stroke-linecap="square" stroke-linejoin="miter" stroke-width="10"/></g></g></svg>
